<svg width="120" height="120" viewBox="0 0 120 120" fill="none" xmlns="http://www.w3.org/2000/svg">
<rect width="120" height="120" fill="white"/>
<path d="M52.7934 103H43.6376V93.6837H36V26.2695H43.6376V17H52.7934V26.2695H60.0169V17H69.1728V27.2994C77.2704 29.4061 82.8376 34.9303 82.8376 43.9657C82.8376 51.9243 77.8225 57.2613 73.3136 58.8998C78.0066 59.6957 85 65.454 85 74.9107C85 85.3506 78.3746 91.062 69.1728 92.9347V103H60.0169V93.6837H52.7934V103ZM61.0751 36.8498H47.1343V53.7501H61.5352C67.1484 53.7501 71.6113 51.6434 71.6113 45.2297C71.6113 38.816 67.0563 36.8498 61.0751 36.8498ZM47.1343 83.1034H61.5352C67.9765 83.1034 73.8657 81.4649 73.8657 73.5999C73.8657 65.9222 67.9305 64.1432 61.9033 64.1432H47.1343V83.1034Z" fill="#6200B2"/>
</svg>