<svg width="120" height="120" viewBox="0 0 120 120" fill="none" xmlns="http://www.w3.org/2000/svg">
<path d="M85 110H35V115H85V110Z" fill="black"/>
<path d="M115 90H110V110H115V90Z" fill="black"/>
<path d="M100 100H95V50H100V80H105V85H100V100Z" fill="black"/>
<path d="M110 110H90V115H110V110Z" fill="black"/>
<path d="M90 40H85V45H90V40Z" fill="black"/>
<path d="M95 45H90V50H95V45Z" fill="black"/>
<path d="M110 85H105V90H110V85Z" fill="black"/>
<path d="M95 100H90V105H95V100Z" fill="black"/>
<path d="M90 105H85V110H90V105Z" fill="black"/>
<path d="M30 100H25V105H30V100Z" fill="black"/>
<path d="M35 105H30V110H35V105Z" fill="black"/>
<path d="M20 85H15V80H20V50H25V100H20V85Z" fill="black"/>
<path d="M10 90H5V110H10V90Z" fill="black"/>
<path d="M30 110H10V115H30V110Z" fill="black"/>
<path d="M15 85H10V90H15V85Z" fill="black"/>
<path d="M30 45H25V50H30V45Z" fill="black"/>
<path d="M35 40H30V45H35V40Z" fill="black"/>
<path d="M40 35H35V40H40V35Z" fill="black"/>
<path d="M85 35H80V40H85V35Z" fill="black"/>
<path d="M80 25H75V35H80V25Z" fill="black"/>
<path d="M45 25H40V35H45V25Z" fill="black"/>
<path d="M45 15H40V20H45V15Z" fill="black"/>
<path d="M50 20H45V25H50V20Z" fill="black"/>
<path d="M75 20H70V25H75V20Z" fill="black"/>
<path d="M80 15H75V20H80V15Z" fill="black"/>
<path d="M85 10H80V15H85V10Z" fill="black"/>
<path d="M80 5H40V10H80V5Z" fill="black"/>
<path d="M40 10H35V15H40V10Z" fill="black"/>
<path d="M75 25V35H45V25H50V20H70V25H75Z" fill="#B57018"/>
<path d="M80 65V55H70V50H50V55H40V65H35V80H40V90H50V95H70V90H80V80H85V65H80ZM60 85V90H55V85H50V80H65V75H50V60H60V55H65V60H70V65H55V70H70V85H60Z" fill="#B57018"/>
<path d="M65 95H55V110H65V95Z" fill="white"/>
<path d="M55 10H50V20H55V10Z" fill="white"/>
<path d="M70 10H65V20H70V10Z" fill="white"/>
<path d="M70 35V40H65V50H55V40H50V35H70Z" fill="white"/>
<path d="M80 10V15H75V20H70V10H80Z" fill="#FFD100"/>
<path d="M65 10H55V20H65V10Z" fill="#FFD100"/>
<path d="M50 10V20H45V15H40V10H50Z" fill="#FFD100"/>
<path d="M55 65V70H70V85H60V90H55V85H50V80H65V75H50V60H60V55H65V60H70V65H55Z" fill="#FFD100"/>
<path d="M35 65V80H40V90H50V95H55V110H35V105H30V100H25V50H30V45H35V40H40V35H50V40H55V50H50V55H40V65H35Z" fill="#FFD100"/>
<path d="M30 105V110H10V90H15V85H20V100H25V105H30Z" fill="#FFD100"/>
<path d="M110 90V110H90V105H95V100H100V85H105V90H110Z" fill="#FFD100"/>
<path d="M95 50V100H90V105H85V110H65V95H70V90H80V80H85V65H80V55H70V50H65V40H70V35H80V40H85V45H90V50H95Z" fill="#FFD100"/>
</svg>
